<?xml version="1.0" encoding="utf-8"?>
<!-- Generator: Adobe Illustrator 21.0.0, SVG Export Plug-In . SVG Version: 6.00 Build 0)  -->
<svg version="1.1" id="Ebene_1" xmlns="http://www.w3.org/2000/svg" xmlns:xlink="http://www.w3.org/1999/xlink" x="0px" y="0px"
	 width="162px" height="82px" viewBox="0 0 162 82" style="enable-background:new 0 0 162 82;" xml:space="preserve">
<style type="text/css">
	.st0{fill:#AC1E36;}
	.st1{fill:#FFFFFF;}
</style>
<g>
	<path class="st0" d="M161,41c0,0-27.5-39.5-80.2-39.7C29.7,1.2,1.1,40.9,1.1,40.9L1,41.1c0,0,28.7,39.7,79.8,39.6
		C133.5,80.5,161,41,161,41L161,41z"/>
	<path class="st1" d="M47.1,45.4c-0.5,0.2-1,0.3-1.5,0.3c-0.6,0-1.1,0-1.4-0.1c-0.3-0.1-0.5-0.2-0.8-0.4c-0.2-0.2-0.4-0.4-0.4-0.6
		C43,44.4,43,44.1,43,43.8c0-0.5,0.1-0.9,0.4-1.2c0.3-0.3,0.6-0.5,1.1-0.7c0.4-0.1,1-0.2,1.8-0.3c0.8-0.1,1.5-0.2,2.2-0.2v3.2
		C48.1,44.9,47.6,45.2,47.1,45.4z M48.5,48.7h5V38.1c0-1.9-0.6-3.2-1.9-4.1c-1.3-0.9-3.3-1.3-6.2-1.3c-1.2,0-2.4,0.1-3.6,0.3
		c-1.2,0.2-2,0.3-2.6,0.5v3.7h0.5c0.4-0.2,1.1-0.4,2-0.7c0.9-0.3,1.8-0.4,2.6-0.4c1.4,0,2.4,0.2,3.1,0.5c0.7,0.3,1,0.9,1,1.8v0.1
		c-1.5,0.1-2.9,0.2-4.2,0.4c-1.4,0.2-2.5,0.5-3.4,0.9c-0.9,0.4-1.6,1-2.2,1.7c-0.5,0.7-0.8,1.6-0.8,2.8c0,1.4,0.5,2.6,1.5,3.5
		c1,0.9,2.2,1.4,3.7,1.4c0.6,0,1.2-0.1,1.7-0.2c0.5-0.1,1-0.3,1.5-0.5c0.3-0.2,0.7-0.4,1.1-0.7c0.4-0.3,0.7-0.5,1-0.7V48.7z"/>
	<path class="st1" d="M73.6,37.7v11h-5v-7.8c0-0.8,0-1.4-0.1-1.9c0-0.5-0.1-1-0.3-1.3c-0.2-0.3-0.4-0.6-0.7-0.7
		c-0.3-0.2-0.8-0.2-1.4-0.2c-0.5,0-1,0.1-1.4,0.3c-0.5,0.2-0.9,0.4-1.2,0.6v11h-5V33.1h5v1.7c0.9-0.7,1.7-1.2,2.5-1.6
		c0.8-0.4,1.6-0.6,2.6-0.6c1,0,1.9,0.2,2.7,0.7c0.8,0.5,1.4,1.1,1.8,2c1-0.8,2-1.5,2.9-2c0.9-0.5,1.9-0.7,2.8-0.7
		c1.7,0,2.9,0.5,3.8,1.5c0.9,1,1.3,2.5,1.3,4.4v10.1h-5v-7.8c0-0.8,0-1.4,0-1.9c0-0.5-0.1-1-0.3-1.3c-0.2-0.3-0.4-0.6-0.7-0.7
		c-0.3-0.2-0.8-0.2-1.4-0.2c-0.4,0-0.8,0.1-1.2,0.2C74.6,37.1,74.2,37.3,73.6,37.7z"/>
	<path class="st1" d="M92.5,38.9c0.1-1.1,0.4-1.9,1-2.4c0.6-0.5,1.4-0.7,2.3-0.7c1,0,1.8,0.3,2.3,0.8c0.5,0.5,0.7,1.3,0.8,2.3H92.5z
		 M103.9,40.1c0-2.4-0.6-4.3-1.9-5.5c-1.3-1.3-3.2-1.9-5.7-1.9c-2.7,0-4.9,0.8-6.5,2.3c-1.6,1.5-2.4,3.5-2.4,6.1
		c0,2.6,0.8,4.6,2.5,6c1.7,1.4,4,2.1,7.2,2.1c1.2,0,2.3-0.1,3.3-0.3c1-0.2,2.1-0.5,3.2-1v-4h-0.6c-0.6,0.4-1.3,0.8-2.3,1.2
		c-1,0.4-2,0.6-3.1,0.6c-1.7,0-2.9-0.3-3.8-1c-0.9-0.6-1.3-1.6-1.4-2.8h11.4V40.1z"/>
	<path class="st1" d="M113.4,48.7h-5V27.1h5V48.7z"/>
	<path class="st1" d="M123.1,48.7h-5V27.1h5V48.7z"/>
	<path class="st1" d="M136.9,45.5c-0.4,0.2-0.8,0.2-1.3,0.2c-0.5,0-1-0.1-1.4-0.2c-0.4-0.2-0.8-0.4-1.1-0.8
		c-0.3-0.4-0.5-0.9-0.7-1.5c-0.2-0.6-0.2-1.4-0.2-2.2c0-0.9,0.1-1.7,0.3-2.4c0.2-0.6,0.4-1.1,0.7-1.5c0.3-0.4,0.7-0.6,1.1-0.8
		c0.4-0.1,0.8-0.2,1.3-0.2c0.5,0,0.9,0.1,1.3,0.2c0.4,0.2,0.8,0.4,1.1,0.8c0.3,0.4,0.5,0.9,0.7,1.5c0.2,0.6,0.2,1.4,0.2,2.3
		c0,1-0.1,1.8-0.2,2.3c-0.2,0.6-0.4,1-0.7,1.4C137.6,45.1,137.3,45.3,136.9,45.5z M141.8,34.9c-1.5-1.5-3.6-2.2-6.3-2.2
		c-2.7,0-4.8,0.7-6.3,2.2c-1.5,1.5-2.3,3.5-2.3,6.1c0,2.6,0.7,4.6,2.2,6.1c1.5,1.5,3.6,2.2,6.3,2.2c2.7,0,4.8-0.7,6.3-2.2
		c1.5-1.5,2.2-3.5,2.2-6.1C144.1,38.4,143.3,36.3,141.8,34.9z"/>
	<path class="st1" d="M35,48.5H22.6V27.8h5v16.7H35V48.5z"/>
</g>
</svg>
